<svg xmlns="http://www.w3.org/2000/svg" xmlns:xlink="http://www.w3.org/1999/xlink" width="57" height="60" viewBox="0 0 57 60">
  <defs>
    <circle id="chronometre-a" cx="27" cy="31" r="16"/>
  </defs>
  <g fill="none" fill-rule="evenodd">
    <path fill="#FFF" fill-rule="nonzero" d="M29,4.03539823 L29,6.63705465 C41.8720032,7.66494563 52,18.5286262 52,31.7787611 C52,45.7080667 40.8071187,57 27,57 C13.1928813,57 2,45.7080667 2,31.7787611 C2,18.5286262 12.1279968,7.66494563 25,6.63705465 L25,4.03539823 L20.5,4.03539823 C19.3954305,4.03539823 18.5,3.13204357 18.5,2.01769912 C18.5,0.903354664 19.3954305,0 20.5,0 L34.5,0 C35.6045695,0 36.5,0.903354664 36.5,2.01769912 C36.5,3.13204357 35.6045695,4.03539823 34.5,4.03539823 L29,4.03539823 Z M27,52.9646018 C38.5979797,52.9646018 48,43.4793778 48,31.7787611 C48,20.0781443 38.5979797,10.5929204 27,10.5929204 C15.4020203,10.5929204 6,20.0781443 6,31.7787611 C6,43.4793778 15.4020203,52.9646018 27,52.9646018 Z"/>
    <use fill="#FFF" xlink:href="#chronometre-a"/>
    <circle cx="27" cy="31" r="14" stroke="#FFF" stroke-width="4"/>
  </g>
</svg>
