<svg xmlns="http://www.w3.org/2000/svg" width="57" height="41" viewBox="0 0 57 41">
  <defs>
    <linearGradient id="logo-a" x1="31.836%" x2="86.941%" y1="0%" y2="100%">
      <stop offset="0%" stop-color="#F43460" stop-opacity=".116"/>
      <stop offset="100%" stop-color="#AB1739" stop-opacity=".778"/>
    </linearGradient>
    <linearGradient id="logo-b" x1="11.055%" x2="86.026%" y1="5.359%" y2="100%">
      <stop offset="0%" stop-color="#F43460" stop-opacity=".238"/>
      <stop offset="100%" stop-color="#AB1739" stop-opacity=".815"/>
    </linearGradient>
    <linearGradient id="logo-c" x1="80.077%" x2="22.971%" y1="2.223%" y2="89.098%">
      <stop offset="0%" stop-color="#AB1739" stop-opacity=".729"/>
      <stop offset="100%" stop-color="#F43460" stop-opacity=".25"/>
    </linearGradient>
    <linearGradient id="logo-d" x1="81.541%" x2="14.135%" y1="2.188%" y2="100%">
      <stop offset="0%" stop-color="#F43460" stop-opacity=".183"/>
      <stop offset="100%" stop-color="#AB1739" stop-opacity=".922"/>
    </linearGradient>
  </defs>
  <g fill="none" fill-rule="evenodd">
    <g fill-rule="nonzero" transform="translate(12)">
      <path fill="url(#logo-a)" d="M31.5206726,22.0220237 L27.7815382,2.34867982 C27.4825357,0.775486672 25.9931604,-0.251940282 24.4549255,0.0538574886 C22.9166905,0.359655259 21.9120942,1.88287836 22.2110968,3.4560715 L25.9502312,23.1294154 C26.2492338,24.7026086 27.738609,25.7300355 29.276844,25.4242377 C30.8150789,25.11844 31.8196752,23.5952169 31.5206726,22.0220237 Z"/>
      <path fill="url(#logo-b)" d="M10.0936651,22.0220237 L6.35453071,2.34867982 C6.05552813,0.775486672 4.56615286,-0.251940282 3.02791793,0.0538574886 C1.48968301,0.359655259 0.485086702,1.88287836 0.784089283,3.4560715 L4.52322367,23.1294154 C4.82222625,24.7026086 6.31160153,25.7300355 7.84983645,25.4242377 C9.38807138,25.11844 10.3926677,23.5952169 10.0936651,22.0220237 Z" transform="matrix(-1 0 0 1 10.878 0)"/>
      <path fill="url(#logo-c)" d="M18.7724895,22.2499662 L27.6915232,4.52055153 C28.4047402,3.10280609 27.8481813,1.36789376 26.4484142,0.645516374 C25.0486471,-0.0768610089 23.335735,0.48684618 22.6225181,1.90459162 L13.7034843,19.6340063 C12.9902673,21.0517517 13.5468262,22.7866641 14.9465933,23.5090414 C16.3463604,24.2314188 18.0592725,23.6677116 18.7724895,22.2499662 Z"/>
      <path fill="url(#logo-d)" d="M10.0068955,22.2499662 L18.9259292,4.52055153 C19.6391462,3.10280609 19.0825873,1.36789376 17.6828202,0.645516374 C16.2830531,-0.0768610089 14.570141,0.48684618 13.8569241,1.90459162 L4.93789032,19.6340063 C4.22467334,21.0517517 4.78123221,22.7866641 6.18099933,23.5090414 C7.58076645,24.2314188 9.2936785,23.6677116 10.0068955,22.2499662 Z" transform="matrix(-1 0 0 1 23.864 0)"/>
    </g>
    <text fill="#FFF" font-family="Platform-Bold, Platform" font-size="11" font-weight="bold" letter-spacing=".907">
      <tspan x="0" y="39">MOOVIZZ</tspan>
    </text>
  </g>
</svg>
